<svg width="91" height="100" fill="none" xmlns="http://www.w3.org/2000/svg"><path d="M51.498 91.464c-3.24 1.966-4.923 8.325-4.923 8.325s-.83.605-1.083-.235c-1.427-4.879-4.623-7.925-4.623-7.925C17.914 89.303 0 69.731 0 45.927 0 20.563 20.366 0 45.492 0 70.632 0 91 20.563 91 45.927c0 23.324-17.201 42.58-39.502 45.537z" fill="#000"/><path d="M32.884 36v22h-6.209v-8.58H18.21V58H12V36h6.209v8.266h8.466V36h6.209z" fill="#fff"/><path d="M59.95 40.934H48.575V58H42.46V40.934H30.553V36H59.95v4.934z" fill="#fff"/><path d="M67.022 49.577h-2.823V58h-6.177V36H64.2v8.549h2.978L72.415 36h6.522L72.07 46.623 79 58h-6.993l-4.985-8.423z" fill="#fff"/></svg>