<svg width="23" height="26" viewBox="0 0 23 26" fill="none" xmlns="http://www.w3.org/2000/svg">
<path d="M15.9993 6.99927L5.58579 17.5857C5.21071 17.9607 5 18.4694 5 18.9999C5 19.5303 5.21071 20.039 5.58579 20.4141C5.96086 20.7892 6.46957 20.9999 7 20.9999C7.53043 20.9999 8.03914 20.7892 8.41421 20.4141L20.8277 7.82769C21.1991 7.45626 21.4938 7.0153 21.6948 6.53C21.8958 6.0447 21.9993 5.52455 21.9993 4.99927C21.9993 4.47398 21.8958 3.95384 21.6948 3.46853C21.4938 2.98323 21.1991 2.54227 20.8277 2.17084C20.4563 1.79941 20.0153 1.50477 19.53 1.30375C19.0447 1.10273 18.5246 0.999268 17.9993 0.999268C17.474 0.999268 16.9538 1.10273 16.4685 1.30375C15.9832 1.50477 15.5423 1.79941 15.1708 2.17084L2.75736 14.7572C1.63214 15.8825 1 17.4086 1 18.9999C1 20.5912 1.63214 22.1173 2.75736 23.2425C3.88258 24.3677 5.4087 24.9999 7 24.9999C8.5913 24.9999 10.1174 24.3677 11.2426 23.2425L21.4993 12.9993" stroke="#D3232A" stroke-width="1.5" stroke-linecap="round" stroke-linejoin="round"/>
</svg>
